# xmcd
#
# Track frame offsets: 
#        150
#        16744
#        44243
#        60066
#        86520
#        111445
#        136369
#        166045
#        181566
#        208200
#        232789
#        247994
#        264865
#        280380
#        311143
#
# Disc length: 4523 seconds
#
# Revision: 0
# Processed by: cddbd v1.5.2PL0 Copyright (c) Steve Scherf et al.
# Submitted via: ExactAudioCopy v1.0b3
#
DISCID=c011a90f
DTITLE=Various Artist - Trance Tronic Vol. 1 - CD 1
DYEAR=1900
DGENRE=
TTITLE0=Rabbit Royal - Pinocchio (Club Edit)
TTITLE1=Filterfunk - S.O.S. (Delano and Crokett Rmx)
TTITLE2=Rocco - Street Knowledge (Short Mix)
TTITLE3=Paffendorf - Vogue (Club Mix)
TTITLE4=Scooter - Apache Rocks The Bottom! (Club Mix)
TTITLE5=Public Domain - Love U More (DJ Dean Rmx)
TTITLE6=Filo and Peri Feat. Tiff Lacey - Dance With A Devil (Original Cl
TTITLE6=ub Mix)
TTITLE7=Beat BangerZ - Doop Re-Washed (Chris Cute Short Rmx)
TTITLE8=D.O.N.S. Feat. Technotronic - Pump Up The Jam (Kurd Maverick M
TTITLE8=ix)
TTITLE9=Tunnel Allstars - Das Boot (Xtd Mix)
TTITLE10=Brooklyn Bounce - Sex, Bass and Rock'n Roll (Ziggy X Edit)
TTITLE11=Bad Habit Boys - Weekend Reloaded (Pulsedriver Edit)
TTITLE12=Miss Distess X Feat. Ricardo - African Drum (Radio Mix)
TTITLE13=Voodoo and Serano Feat. Marc Aurel - Don't You Know (Marc Aurel
TTITLE13=Mix)
TTITLE14=Mozes and Edd - Purple Sky (E-Sound and PM Remix)
EXTD=
EXTT0=
EXTT1=
EXTT2=
EXTT3=
EXTT4=
EXTT5=
EXTT6=
EXTT7=
EXTT8=
EXTT9=
EXTT10=
EXTT11=
EXTT12=
EXTT13=
EXTT14=
PLAYORDER=
